<?xml version="1.0" encoding="UTF-8" standalone="no"?>
<!-- Created with Inkscape (http://www.inkscape.org/) -->

<svg
   width="512"
   height="512"
   viewBox="0 0 512 512"
   version="1.1"
   id="svg1"
   xmlns:xlink="http://www.w3.org/1999/xlink"
   xmlns="http://www.w3.org/2000/svg"
   xmlns:svg="http://www.w3.org/2000/svg">
  <defs
     id="defs1">
    <linearGradient
       id="linearGradient39">
      <stop
         style="stop-color:#000000;stop-opacity:1;"
         offset="0"
         id="stop39" />
      <stop
         style="stop-color:#000000;stop-opacity:0;"
         offset="1"
         id="stop40" />
    </linearGradient>
    <radialGradient
       xlink:href="#linearGradient39"
       id="radialGradient40"
       cx="307.01263"
       cy="214.53014"
       fx="307.01263"
       fy="214.53014"
       r="306.60306"
       gradientTransform="matrix(1,0,0,0.69753716,0,64.887396)"
       gradientUnits="userSpaceOnUse" />
  </defs>
  <g
     id="layer1">
    <text
       xml:space="preserve"
       style="font-size:562.736px;text-align:start;writing-mode:lr-tb;direction:ltr;text-anchor:start;fill:url(#radialGradient40);stroke-width:2.11;stroke-dasharray:none"
       x="-35.629856"
       y="419.37375"
       id="text1"
       transform="scale(0.83828304,1.1929145)"><tspan
         id="tspan1"
         x="-35.629856"
         y="419.37375"
         style="font-size:562.736px;fill:url(#radialGradient40);stroke-width:2.11;stroke-dasharray:none"><tspan
           style="fill:url(#radialGradient40);fill-opacity:1;stroke:#3400da;stroke-width:2.11;stroke-dasharray:none;stroke-opacity:1"
           id="tspan38">S</tspan><tspan
           style="opacity:0.206312;fill:url(#radialGradient40);stroke:#000000;stroke-width:2.11;stroke-dasharray:none;stroke-opacity:1"
           id="tspan39">F</tspan></tspan></text>
    <path
       style="fill:none;fill-rule:evenodd;stroke:#000000"
       id="path26"
       d="m 83.373108,99.685242 c 4.225636,4.907178 -4.530004,8.117108 -8.15606,7.023288 -9.826387,-2.96418 -10.477559,-15.882491 -5.890511,-23.335408 8.205153,-13.331519 26.946209,-13.566466 38.514753,-4.757736 16.9773,12.927165 16.75984,38.164684 3.62496,53.694094 C 93.959513,153.00774 62.027535,152.308 42.59281,134.80167 18.136192,112.77174 19.332035,74.062302 41.233396,50.748884 67.758879,22.513211 113.28844,24.212167 140.46553,50.522244 172.49278,81.52776 170.28678,133.90234 139.55939,164.93372 104.0834,200.76068 44.847991,198.04525 9.9685715,162.89481 -29.663641,122.95465 -26.437244,56.847712 13.140254,18.124646 57.540226,-25.316782 130.52625,-21.578365 173.08976,22.429103 c 47.25357,48.85663 43.00239,128.727307 -5.43723,175.128857"
       transform="matrix(0.94363584,0,0,1.0001263,40.645415,41.674883)" />
    <path
       style="fill:#000000;stroke:#000000;stroke-width:0.906229;stroke-opacity:1"
       d="M 93.341635,508.35855 C 68.96803,505.36436 41.68013,496.86331 14.273114,483.72619 L 2.7186884,478.18776 V 444.755 411.32225 l 5.2108194,3.99161 c 19.3757532,14.84232 43.0309852,27.87803 61.8501612,34.08384 36.836281,12.14712 75.209801,8.26128 97.623491,-9.88571 14.21215,-11.50672 22.75899,-27.59612 26.22692,-49.3721 2.18299,-13.70756 1.28997,-37.68821 -1.85638,-49.85073 -5.90135,-22.81214 -18.38584,-37.93092 -39.98026,-48.41627 -10.15116,-4.92899 -18.67848,-7.81667 -42.94001,-14.54114 C 88.043442,271.56391 77.625467,267.71344 64.290778,260.86144 29.464024,242.9658 11.025635,216.65531 4.0506154,174.90229 2.0738638,163.0693 1.3148108,134.45838 2.6237193,121.11842 8.123898,65.062437 33.884639,26.184647 76.111409,10.211711 88.476742,5.5343305 99.900253,3.5438367 117.35672,3.0249067 c 31.07721,-0.9238355 61.48217,5.392156 93.84315,19.4939393 l 10.37323,4.520294 0.23814,31.779124 0.23813,31.779124 -7.48796,-4.87731 C 178.09442,61.967206 141.819,51.760597 110.79435,56.523727 66.383559,63.341992 44.655009,94.397492 48.124218,146.09491 c 2.065725,30.78298 12.972999,46.40581 40.68627,58.27621 4.236622,1.81467 20.752652,7.11102 36.702292,11.76966 15.94964,4.65866 33.39748,10.31624 38.77297,12.57242 29.15154,12.23533 49.4996,30.86254 62.75918,57.45156 11.1553,22.36941 16.70131,53.32564 15.54159,86.74867 -0.83596,24.09221 -3.35081,39.70243 -9.22364,57.25314 -6.24181,18.65338 -14.56969,32.53084 -27.16761,45.27173 -16.40815,16.59436 -36.39198,26.52069 -63.01101,31.29868 -11.09478,1.99147 -39.3489,2.91069 -49.842625,1.62157 z"
       id="path27" />
    <path
       style="fill:#000000;stroke-width:0.906229"
       d="M 93.341635,508.35609 C 69.002494,505.37497 41.68442,496.86537 14.273114,483.72619 L 2.7186884,478.18776 v -33.35677 -33.35677 l 9.7419666,7.06071 c 39.282323,28.47072 75.548994,40.72448 110.377235,37.29418 30.16767,-2.97127 50.97074,-15.85914 62.42706,-38.67465 7.46046,-14.85767 10.01691,-29.05532 9.33282,-51.83135 -0.56531,-18.82127 -2.78642,-29.13095 -8.99495,-41.75166 -3.1451,-6.39335 -5.32819,-9.25798 -12.46744,-16.35966 C 159.4305,293.57904 148.70494,288.49548 112.09239,278.27942 88.098446,271.58435 77.991813,267.90168 64.290778,260.86144 29.464024,242.9658 11.025635,216.65531 4.0506154,174.90229 2.0738638,163.0693 1.3148108,134.45838 2.6237193,121.11842 5.5224956,91.57506 13.69744,67.328106 27.265678,48.030162 33.426477,39.267729 45.83512,27.015898 54.174743,21.461154 66.314836,13.375043 81.503067,7.3919797 97.670884,4.3268223 c 9.561096,-1.8126288 43.765396,-1.464421 55.028786,0.560206 20.60645,3.7040686 44.87174,11.2044547 63.2095,19.5380177 l 6.11705,2.779883 V 58.880626 90.556322 L 213.6436,85.090466 C 202.73974,77.98065 179.47861,66.446365 168.55868,62.734617 138.65803,52.571217 107.78058,53.088073 85.458191,64.125634 58.154885,77.626067 45.481733,105.75295 48.190882,146.83694 c 1.175522,17.82668 5.914644,30.88627 14.703293,40.5178 10.794307,11.82956 22.703993,17.19425 66.181595,29.81133 12.99314,3.77057 27.70193,8.46826 32.68619,10.43929 35.5394,14.0541 60.33504,39.77074 71.94972,74.62217 12.40477,37.22227 12.04271,92.92314 -0.84238,129.59081 -6.26527,17.82939 -14.55834,31.38149 -26.67403,43.58932 -16.76079,16.88827 -36.3154,26.60542 -62.99144,31.30198 -11.95565,2.10491 -38.86475,2.99344 -49.862195,1.64645 z"
       id="path28" />
    <path
       style="fill:#000000;stroke-width:0.906229"
       d="M 90.269895,507.89381 C 66.398484,504.64323 41.179735,496.62345 14.273114,483.72619 L 2.7186884,478.18776 v -33.49593 -33.49594 l 2.9452458,2.36818 c 6.9489748,5.58745 29.0680778,19.87778 37.8350798,24.44385 39.807448,20.73268 80.974516,24.16875 111.013106,9.26587 14.12836,-7.00942 22.94481,-15.49114 29.95638,-28.81901 7.05356,-13.40766 9.40185,-23.6279 10.04753,-43.7289 1.22165,-38.03188 -8.52449,-60.93372 -32.80684,-77.09063 C 151.2361,290.66669 140.3457,286.39648 113.46947,278.72005 86.84511,271.11556 77.09245,267.55545 63.40913,260.44597 29.167342,242.65489 11.25171,216.75712 3.918031,174.44917 2.7036676,167.44352 2.3440426,160.03962 2.333394,141.82491 2.3213343,121.19665 2.5788913,116.8095 4.4019612,106.58957 8.435476,83.978133 15.881631,64.588391 26.455136,49.163228 32.615962,40.175503 45.732843,27.059189 54.158406,21.461154 66.348286,13.362066 81.51502,7.3897136 97.670884,4.3268223 c 9.561096,-1.8126288 43.765396,-1.464421 55.028786,0.560206 20.37265,3.6620425 39.47912,9.4092787 58.83804,17.6985117 l 10.03539,4.297022 0.23814,31.857413 0.23813,31.857413 -7.66582,-4.996839 C 204.97661,79.468798 187.14957,70.133546 176.41754,65.719391 156.8514,57.67171 134.76437,54.106774 116.22393,56.003903 102.32899,57.425685 96.647488,58.972552 85.491866,64.371124 69.502955,72.108684 58.632135,84.856319 52.67217,102.85704 c -3.897887,11.77269 -4.92203,20.66158 -4.411634,38.29008 0.334557,11.55521 0.90147,16.90771 2.375395,22.4273 4.858255,18.1933 13.570878,28.57765 31.407079,37.43329 9.838508,4.88481 16.419012,7.14834 45.57512,15.67674 13.79485,4.0351 29.15957,8.94936 34.14383,10.92057 33.47413,13.23863 57.49586,36.8001 69.67756,68.34254 7.96917,20.63478 10.92774,39.37513 10.93468,69.26292 0.007,28.75027 -2.42347,46.11748 -9.18562,65.64594 -6.47203,18.69063 -14.53497,31.99815 -26.99331,44.55124 -14.87756,14.99071 -31.38518,24.07487 -53.4956,29.4387 -17.43014,4.22842 -44.17101,5.53376 -62.429775,3.04745 z"
       id="path29" />
    <path
       style="fill:#000000;stroke-width:0.906229"
       d="M 90.169832,507.89418 C 66.283989,504.67853 41.737966,496.85923 14.273114,483.71677 L 2.7186884,478.18776 v -33.48735 -33.48735 l 3.0257584,2.30786 c 41.4627112,31.62515 80.8427842,45.92674 116.6142532,42.3506 42.07351,-4.20616 66.37848,-27.71628 71.60844,-69.26659 1.40233,-11.14106 0.70386,-32.70869 -1.38255,-42.69085 -4.95136,-23.68919 -18.02847,-40.50617 -40.08314,-51.54638 -9.66337,-4.83734 -16.10875,-7.08067 -39.40832,-13.71618 C 87.517973,271.36796 77.949424,267.8799 64.290778,260.86144 29.287274,242.87498 11.32164,217.16055 3.918031,174.44917 2.7036676,167.44352 2.3440426,160.03962 2.333394,141.82491 2.3213343,121.19665 2.5788913,116.8095 4.4019612,106.58957 8.435476,83.978133 15.881631,64.588391 26.455136,49.163228 35.910972,35.368577 51.216931,21.985952 66.067675,14.528368 73.405482,10.843549 88.133527,6.0209725 96.966553,4.4107874 c 8.946997,-1.6309606 42.156767,-1.65833 52.561307,-0.043318 18.90559,2.9345601 41.01933,9.3517396 60.71738,17.6195526 l 11.32786,4.754618 0.23809,31.880077 0.23808,31.880078 -9.30038,-5.861872 C 200.51801,76.931003 178.37798,66.05773 167.87813,62.603279 128.143,49.530416 90.580273,54.676662 68.830943,76.173145 58.404452,86.478423 51.341559,101.48803 48.886799,118.55716 c -1.621738,11.27673 -0.665996,35.8346 1.746406,44.87403 4.505095,16.88091 13.526938,28.2266 28.748684,36.15379 11.296682,5.88309 16.380937,7.68824 47.809421,16.97457 36.1948,10.69467 44.41199,14.02442 60.14752,24.37285 35.43034,23.30069 53.31472,60.90746 55.22327,116.12201 2.80482,81.14367 -28.70101,132.98143 -89.8201,147.78454 -17.50249,4.23911 -44.12323,5.53894 -62.572168,3.05523 z"
       id="path30" />
    <path
       style="fill:#000000;stroke-width:0.906229"
       d="M 90.169832,507.89418 C 66.283989,504.67853 41.737966,496.85923 14.273114,483.71677 L 2.7186884,478.18776 v -33.46662 -33.46661 l 4.30459,3.26074 c 22.1968346,16.81418 47.9617146,30.5768 67.9757326,36.31004 42.053399,12.04668 81.441069,3.85073 102.230419,-21.27254 5.10446,-6.16858 11.49426,-19.07259 13.91114,-28.09312 4.74617,-17.71414 4.91426,-42.68298 0.41487,-61.6236 -2.18557,-9.20038 -9.36066,-23.15227 -15.23151,-29.61754 -13.14966,-14.48104 -25.30237,-20.5853 -62.09696,-31.19104 C 87.736524,271.39182 78.019742,267.88547 65.046677,261.28051 21.315247,239.01557 1.8124589,202.15398 1.8124589,141.76354 1.8124589,73.917602 29.424856,26.514292 79.04597,9.1736668 93.555976,4.1029907 100.57323,3.1725234 123.70032,3.2526291 c 17.15338,0.059414 22.68823,0.413013 31.26492,1.9973844 19.23523,3.5533233 39.12121,9.7170765 58.90491,18.2578495 l 7.70295,3.325422 0.2381,31.842761 0.23809,31.842762 -8.84727,-5.577391 C 192.23636,71.724498 167.13608,61.109761 148.16852,57.439184 138.38199,55.545311 116.60073,55.285941 107.84131,56.958971 77.588259,62.737229 58.726987,79.880936 50.933849,108.68425 c -2.154332,7.96238 -2.350718,10.19357 -2.398514,27.25017 -0.04188,14.94559 0.271539,19.95736 1.603093,25.6344 2.486487,10.60109 7.988348,20.88823 14.643625,27.38002 10.942789,10.67399 21.863726,15.52007 61.481137,27.28176 31.10715,9.23515 42.06665,13.32228 53.62336,19.99778 29.52756,17.05601 48.25354,42.32793 56.96797,76.88198 4.37724,17.35642 5.5141,28.08732 5.51968,52.10012 0.007,28.47406 -1.89471,42.90948 -8.29559,62.98294 -12.9447,40.59516 -40.77661,66.82186 -81.33661,76.64553 -17.50249,4.23911 -44.12323,5.53894 -62.572168,3.05523 z"
       id="path31" />
    <path
       style="fill:#000000;stroke-width:0.906229"
       d="M 96.060323,508.68996 C 82.087276,507.2761 64.288645,503.18716 48.030162,497.65583 33.96638,492.87116 29.730394,491.13197 15.179344,484.16813 L 2.7186884,478.2047 v -33.46665 -33.46667 l 3.8514752,2.90723 c 10.1996394,7.69904 29.5525024,19.75019 40.6695544,25.3252 22.997454,11.53282 43.183343,16.59825 65.585852,16.45803 43.08452,-0.26965 70.6652,-20.80158 79.46466,-59.156 1.60622,-7.00107 1.959,-11.50035 2.0155,-25.70487 0.0735,-18.47442 -0.87632,-26.19333 -4.55335,-37.00422 -6.17141,-18.14471 -17.69348,-31.37316 -35.41594,-40.66094 -9.78981,-5.13052 -18.63262,-8.26416 -43.27267,-15.33459 C 87.85261,271.44082 77.749011,267.74763 65.046677,261.28051 29.699447,243.28421 11.568815,217.74469 4.0480085,175.3554 2.0749032,164.23445 1.2729767,133.6498 2.6098321,120.50484 9.1864146,55.838951 43.047987,14.173913 96.966553,4.4034249 107.0978,2.5675593 141.03767,2.8309198 152.69967,4.8358926 171.48094,8.0648383 194.63521,15.098526 213.41704,23.280319 l 8.15606,3.552966 0.2381,31.844425 0.23809,31.844424 -10.20662,-6.349189 C 177.18999,62.616692 144.0387,52.984708 115.39104,56.149284 86.699539,59.318702 67.448869,71.647724 56.611001,93.79475 c -6.639689,13.56811 -8.092533,21.25297 -8.052285,42.59278 0.03842,20.36964 1.143265,27.45631 5.848028,37.51017 7.245681,15.48365 19.071052,24.86207 41.200465,32.6751 4.485831,1.58377 20.186261,6.48657 34.889831,10.89512 27.56321,8.26423 39.31327,12.7585 50.29055,19.23559 43.69769,25.78363 63.96486,70.63375 61.75619,136.66303 -0.81605,24.3963 -3.51722,40.91976 -9.52271,58.25195 -17.80125,51.37536 -60.31544,78.32237 -122.33053,77.53744 -6.30213,-0.0798 -12.885725,-0.28945 -14.630217,-0.46597 z"
       id="path32" />
    <path
       style="fill:#000000;stroke-width:0.906229"
       d="M 92.730148,508.30821 C 69.746098,505.63013 42.882711,497.34514 16.31213,484.73996 L 3.1718031,478.50614 2.9341292,444.88059 2.6964553,411.25503 l 3.8625918,2.91504 c 25.3163119,19.1058 55.6974759,34.1575 79.5327519,39.40279 10.292637,2.26504 34.651511,2.81498 44.993991,1.01581 44.78069,-7.79001 67.35028,-42.13 63.06641,-95.95657 -2.09393,-26.31017 -10.21596,-43.49939 -26.76924,-56.65369 C 155.0798,292.20155 144.35101,287.65295 111.06377,278.10122 87.85261,271.44082 77.749011,267.74763 65.046677,261.28051 29.699447,243.28421 11.568815,217.74469 4.0480085,175.3554 2.0686032,164.19894 1.2901622,133.77102 2.6337738,120.0754 8.7982874,57.239662 41.453956,16.196478 94.247865,4.9304976 103.65957,2.9220817 128.44277,2.2116258 141.833,3.5663817 164.39822,5.8494146 192.72275,13.729749 215.22975,23.98652 l 6.79647,3.097248 v 31.763648 31.763647 l -6.11705,-3.903204 c -21.02956,-13.418678 -42.03064,-22.940686 -60.4665,-27.415867 -25.7787,-6.257602 -50.45197,-4.404335 -70.2571,5.277176 -6.235718,3.048258 -9.277475,5.33269 -15.969183,11.993232 -7.038108,7.005328 -8.885062,9.502525 -12.431435,16.808071 -6.693856,13.789389 -8.199756,21.577159 -8.230463,42.563949 -0.03022,20.6534 1.213029,27.90825 6.776542,39.54375 6.068069,12.69073 16.781185,21.65372 34.484431,28.85095 4.18231,1.70031 21.115758,7.17552 37.629878,12.16714 16.51412,4.99161 33.69673,10.65834 38.18357,12.59272 53.72029,23.16008 79.27718,70.92544 76.95341,143.82445 -1.53745,48.23135 -13.82552,81.56186 -38.7586,105.13 -18.23922,17.24072 -42.02968,27.21237 -72.28991,30.29995 -10.72931,1.09476 -29.2504,1.07797 -38.803662,-0.0352 z"
       id="path33" />
    <path
       style="fill:#000000;stroke-width:0.906229"
       d="M 89.331751,507.88981 C 68.013187,504.98765 42.120493,496.82281 16.312573,484.86437 L 3.1718031,478.77543 2.9340998,444.98575 2.6963963,411.19606 l 2.9563919,2.2392 c 15.3351588,11.61501 37.5136528,24.77225 52.1740068,30.95187 21.043888,8.8704 36.630191,11.85879 58.170575,11.15316 15.14064,-0.49599 24.29557,-2.23524 34.60434,-6.57414 31.85384,-13.40709 47.71636,-47.00671 43.42831,-91.9888 -2.84523,-29.84665 -13.62883,-48.02295 -36.74124,-61.92918 -7.93021,-4.77144 -21.05503,-9.60698 -44.46321,-16.38146 C 87.77059,271.41564 77.89545,267.82219 65.046677,261.28051 20.901343,238.80484 1.8167168,202.57554 1.8132164,141.24125 1.8089593,66.651798 34.967806,17.829278 94.457947,4.8327372 104.99925,2.5298264 140.59084,2.5256655 153.15278,4.8258755 c 19.7554,3.6173998 41.85796,10.3255485 59.54094,18.0707355 l 8.87938,3.889189 0.23814,31.91084 0.23815,31.910839 -9.41539,-5.819825 C 192.95105,72.621259 172.01448,63.283678 155.61539,59.357715 119.51709,50.715736 86.81591,57.608142 67.681663,77.891451 53.021436,93.432068 46.995233,114.20348 48.490423,144.04077 c 1.576457,31.45903 12.256145,47.73072 38.855003,59.19993 4.427689,1.90918 19.516414,6.9339 33.530484,11.16607 14.01408,4.23215 29.15038,8.93425 33.63621,10.4491 46.28858,15.63149 75.20879,49.07409 84.62143,97.85409 4.13457,21.427 4.75551,53.85652 1.47198,76.8761 -9.28845,65.11765 -46.69583,102.41835 -109.07172,108.76066 -12.41304,1.26214 -31.05704,1.06029 -42.202059,-0.45691 z"
       id="path34" />
    <path
       style="fill:#000000;stroke-width:0.906229"
       d="M 89.716717,507.9198 C 65.905258,504.6163 40.996172,496.62374 12.460655,483.1307 l -9.7419666,-4.60649 v -33.65855 c 0,-33.18377 0.024909,-33.64101 1.7658698,-32.41523 0.9712284,0.68382 5.3551137,3.83417 9.7419668,7.00076 17.521622,12.64776 39.685594,24.26432 57.211295,29.98555 15.345917,5.00964 21.706493,5.91994 40.93463,5.8584 16.07715,-0.0515 18.46537,-0.26947 26.47094,-2.41643 13.77528,-3.69429 24.11928,-9.50173 33.42293,-18.76465 6.6696,-6.6404 8.45754,-9.11428 12.47262,-17.25775 5.57858,-11.31461 7.94698,-20.12939 9.33409,-34.73998 1.23658,-13.02507 -0.0392,-31.72589 -2.91937,-42.7933 -6.21331,-23.87539 -21.95598,-40.65005 -47.65956,-50.78383 -4.40703,-1.7375 -17.74552,-6.0063 -29.64108,-9.48624 C 87.851455,271.44645 77.887567,267.81818 65.046677,261.28051 26.891179,241.85444 7.509354,211.91317 2.763216,165.06431 1.5397875,152.98791 1.5437282,129.26772 2.7710348,118.00067 9.4727804,56.476591 41.804866,16.325612 93.802489,4.9550112 102.70857,3.0074714 128.57467,2.2392806 141.72515,3.5317683 c 14.21122,1.3967414 29.47525,4.6861164 45.11575,9.7223707 14.52639,4.677511 34.23428,12.761492 34.8177,14.28188 0.21556,0.561744 0.28451,14.947597 0.15321,31.968562 l -0.23871,30.947208 -8.60918,-5.435122 C 202.60061,78.474131 184.71258,69.39855 173.54294,65.016229 142.14654,52.6981 108.21406,52.882261 83.870944,65.502906 75.277382,69.958222 63.869496,80.77 58.996037,89.077999 50.408454,103.71763 46.855114,124.28949 48.800472,148.10464 c 1.666668,20.4034 6.282762,31.2057 18.045642,42.22931 10.674126,10.00329 19.166084,13.60719 63.727706,27.04543 13.25051,3.99589 27.31973,8.54021 31.26492,10.09847 36.15175,14.27918 61.04733,40.6673 72.69812,77.05657 10.90127,34.04825 11.14395,84.45493 0.58182,120.8506 -12.5084,43.10226 -43.59979,71.78582 -87.40328,80.63447 -16.58055,3.34939 -41.6364,4.17035 -57.998683,1.90031 z"
       id="path35" />
    <path
       style="fill:#000000;stroke-width:0.906229"
       d="M 89.716717,507.97366 C 65.101079,504.35524 41.519364,496.81741 13.366885,483.56867 L 2.7186884,478.55755 v -33.61817 c 0,-26.65985 0.2344649,-33.47478 1.1327868,-32.9254 0.6230328,0.38103 4.5991146,3.22193 8.8357378,6.31312 10.110829,7.37724 25.627607,16.76308 35.796063,21.65246 25.599777,12.30934 45.337918,16.70671 69.779674,15.5459 15.17936,-0.72092 24.74475,-3.05315 36.64596,-8.93501 7.99473,-3.95119 10.67717,-5.8803 17.32754,-12.46137 6.82799,-6.75685 8.48105,-9.0422 12.50102,-17.28271 5.66168,-11.60581 8.04278,-20.59368 9.27721,-35.01837 1.14141,-13.33783 -0.0682,-31.26431 -2.85049,-42.24573 -3.99927,-15.78446 -12.7764,-29.14944 -25.38034,-38.6468 -11.97575,-9.024 -23.84749,-13.84971 -59.16135,-24.04829 C 88.054886,271.52487 77.065937,267.39986 65.046677,261.28051 20.847427,238.77739 1.8124589,202.64242 1.8124589,141.24006 1.8124589,79.014868 24.599762,34.824801 67.397629,14.054628 84.185012,5.9075661 99.579475,2.7409787 122.47152,2.7261238 c 22.13109,-0.014361 41.43368,3.1426988 64.36938,10.5280152 14.52639,4.677511 34.23428,12.761492 34.8177,14.28188 0.21556,0.561744 0.28451,14.947597 0.15321,31.968562 l -0.23871,30.947208 -8.60918,-5.431447 C 191.76337,71.645118 164.92639,60.604067 146.0867,57.506262 133.31307,55.405897 111.41367,56.035801 101.04459,58.801833 63.334453,68.861289 45.054326,99.749855 48.833674,147.02442 c 1.586005,19.83881 5.344775,30.07131 14.732803,40.10715 11.444011,12.23368 20.572652,16.26864 71.578063,31.63829 20.47646,6.17025 29.67682,9.51868 39.11224,14.2347 15.64094,7.81769 32.69776,22.2127 42.57494,35.93091 17.47509,24.27077 26.04592,55.97671 26.02533,96.27501 -0.042,82.26033 -34.10032,130.10892 -101.03214,141.94039 -10.71414,1.89393 -41.51303,2.38025 -52.108193,0.82279 z"
       id="path36" />
    <path
       style="fill:#000000;stroke-width:0.906229"
       d="M 94.700979,508.67265 C 73.491364,506.77912 42.092182,497.09613 13.315296,483.57466 L 2.7186884,478.5956 v -33.63719 c 0,-26.66654 0.2345854,-33.49222 1.132001,-32.93759 0.6226004,0.3848 4.5986822,3.18648 8.8357376,6.22597 24.75079,17.75523 53.280628,31.27171 74.536986,35.31313 11.013003,2.09387 27.674477,2.70492 38.700707,1.41932 28.20329,-3.28836 48.43627,-16.68531 59.35541,-39.30128 7.4629,-15.45731 10.44158,-34.76973 8.68992,-56.34134 -2.1442,-26.40555 -9.4175,-42.53154 -25.27287,-56.03364 C 157.7755,294.00282 146.02753,288.68124 118.26295,280.45764 89.420167,271.91469 79.480264,268.38682 67.357974,262.39042 36.65168,247.20131 19.239899,227.76069 9.3777849,197.65433 4.5618824,182.95269 2.6402886,170.05176 2.0633301,148.54757 1.1487007,114.45782 5.9385979,87.959335 17.202465,64.795407 33.800212,30.662455 65.042727,8.2385738 102.38016,3.6603003 c 17.61502,-2.1599336 41.28372,-0.8939613 61.19426,3.2731089 16.57711,3.4694178 54.18905,16.5344618 57.69618,20.0415938 0.42872,0.42872 0.67217,14.895085 0.541,32.147477 l -0.2385,31.367986 -8.60918,-5.407581 C 194.56335,73.525155 174.17244,64.385399 155.98576,59.543749 145.83173,56.840545 144.77644,56.739081 126.87213,56.744547 105.65902,56.751022 99.833564,57.841923 86.593832,64.287241 58.46855,77.97909 45.840093,105.63169 48.907515,146.80917 c 1.561317,20.95933 5.361809,30.66903 16.341007,41.74885 10.998782,11.09959 18.490596,14.43064 63.177398,28.09026 29.49211,9.01499 37.05545,11.79298 48.25146,17.72265 21.50632,11.39024 39.77864,30.02338 50.60488,51.60418 10.98422,21.89572 16.39721,52.98167 15.29636,87.84454 -1.41712,44.87845 -12.27973,76.46911 -34.30195,99.75699 -15.32816,16.20911 -35.74487,27.28722 -59.20192,32.12296 -15.3748,3.16957 -38.19584,4.41737 -54.373771,2.97305 z"
       id="path37" />
    <path
       style="fill:#000000;stroke-width:0.906229"
       d="M 91.529176,508.31292 C 68.621748,505.36431 40.763755,496.56525 13.366885,483.62501 L 2.7186884,478.5956 v -33.69424 -33.69425 l 2.0390163,1.47657 c 30.3578773,21.98385 58.4160213,35.82727 83.1465533,41.02314 9.42582,1.98035 36.377152,2.24887 44.858362,0.44692 43.8268,-9.31161 64.91505,-41.98364 61.14536,-94.73254 -1.06642,-14.9222 -3.32076,-23.99347 -8.69578,-34.99105 -3.63548,-7.43838 -5.3929,-9.7801 -12.92274,-17.21921 -12.87967,-12.7245 -23.46803,-17.87078 -56.7452,-27.58005 C 91.161827,272.51685 81.577289,269.15343 69.892041,263.61059 31.91077,245.59435 12.125269,219.84507 4.5147738,178.5272 2.048605,165.13822 1.0733259,134.62091 2.6310559,119.58409 8.8993912,59.075621 39.081766,19.162331 88.385105,6.1825998 99.078575,3.3674087 99.546434,3.3258851 121.43475,3.2493933 c 23.90582,-0.083542 29.06904,0.4558672 47.7593,4.9894868 16.73346,4.0589669 49.01291,15.6724789 52.07655,18.7361229 0.42872,0.42872 0.67217,14.878046 0.541,32.109613 l -0.2385,31.330122 -9.5154,-5.857643 C 192.92384,72.778379 172.20413,63.676713 154.05901,59.079663 c -8.78977,-2.22688 -10.89757,-2.406336 -27.64,-2.353233 -15.53643,0.04928 -19.12082,0.331331 -25.10117,1.975196 -14.909131,4.098197 -27.645324,11.92655 -36.310148,22.318185 -5.483121,6.57585 -11.814119,19.468869 -13.858597,28.222899 -3.2573,13.94708 -3.22856,42.12137 0.0559,54.79651 2.531646,9.76994 7.231509,17.87501 14.550367,25.09257 9.048537,8.92332 20.552746,14.47726 46.617088,22.50556 42.58245,13.11619 50.87958,15.96569 60.47436,20.76885 23.97299,12.0009 42.95175,30.67754 54.43545,53.56891 10.98422,21.89572 16.39721,52.98167 15.29636,87.84454 -1.42648,45.17483 -12.36734,76.75286 -34.6866,100.11416 -18.65999,19.5312 -41.98086,30.42749 -72.85827,34.04183 -12.08936,1.4151 -33.82206,1.5836 -43.504572,0.33728 z"
       id="path38" />
  </g>
</svg>
