<svg width="119" height="194" viewBox="0 0 119 194" fill="none" xmlns="http://www.w3.org/2000/svg">
<path d="M68.1539 133.999L105.786 112.58L105.52 155.881L68.1539 133.999Z" fill="#212121" fill-opacity="0.2"/>
<path d="M105.281 113.443L105.025 155.012L69.1529 134.006L105.281 113.443Z" stroke="#DFDFDF" stroke-opacity="0.5"/>
<path d="M24.154 158.999L61.7865 137.58L61.5199 180.881L24.154 158.999Z" fill="#212121" fill-opacity="0.2"/>
<path d="M61.2812 138.443L61.0253 180.012L25.153 159.006L61.2812 138.443Z" stroke="#DFDFDF" stroke-opacity="0.5"/>
<path d="M24.154 108.999L61.7865 87.5802L61.5199 130.881L24.154 108.999Z" fill="#212121" fill-opacity="0.2"/>
<path d="M61.2812 88.4425L61.0253 130.012L25.153 109.006L61.2812 88.4425Z" stroke="#DFDFDF" stroke-opacity="0.5"/>
<path d="M21.5733 155.78L21.8399 112.479L59.2058 134.36L21.5733 155.78Z" fill="#212121" fill-opacity="0.2"/>
<path d="M22.334 113.348L58.2063 134.354L22.0781 154.918L22.334 113.348Z" stroke="#DFDFDF" stroke-opacity="0.5"/>
<path d="M65.5733 180.78L65.8399 137.479L103.206 159.36L65.5733 180.78Z" fill="#212121" fill-opacity="0.2"/>
<path d="M66.334 138.348L102.206 159.354L66.0781 179.918L66.334 138.348Z" stroke="#DFDFDF" stroke-opacity="0.5"/>
<path d="M65.5733 130.78L65.8399 87.4791L103.206 109.36L65.5733 130.78Z" fill="#212121" fill-opacity="0.2"/>
<path d="M66.334 88.348L102.206 109.354L66.0781 129.918L66.334 88.348Z" stroke="#DFDFDF" stroke-opacity="0.5"/>
<path d="M24.154 58.9995L61.7865 37.5802L61.5199 80.8806L24.154 58.9995Z" fill="#212121" fill-opacity="0.2"/>
<path d="M61.2812 38.4426L61.0253 80.0121L25.153 59.0057L61.2812 38.4426Z" stroke="#DFDFDF" stroke-opacity="0.5"/>
<path d="M21.5733 105.78L21.8399 62.4791L59.2058 84.3603L21.5733 105.78Z" fill="#212121" fill-opacity="0.2"/>
<path d="M22.334 63.348L58.2063 84.3544L22.0781 104.918L22.334 63.348Z" stroke="#DFDFDF" stroke-opacity="0.5"/>
<path d="M21.5733 55.7796L21.8399 12.4791L59.2058 34.3603L21.5733 55.7796Z" fill="#212121" fill-opacity="0.2"/>
<path d="M22.334 13.348L58.2063 34.3544L22.0781 54.9175L22.334 13.348Z" stroke="#DFDFDF" stroke-opacity="0.5"/>
</svg>
