<svg width="113" height="119" viewBox="0 0 113 119" fill="none" xmlns="http://www.w3.org/2000/svg">
<path d="M24.1539 83.9995L61.7865 62.5802L61.5199 105.881L24.1539 83.9995Z" fill="#212121" fill-opacity="0.2"/>
<path d="M61.2811 63.4425L61.0252 105.012L25.1529 84.0056L61.2811 63.4425Z" stroke="#DFDFDF" stroke-opacity="0.5"/>
<path d="M24.1539 33.9995L61.7865 12.5802L61.5199 55.8806L24.1539 33.9995Z" fill="#212121" fill-opacity="0.2"/>
<path d="M61.2811 13.4426L61.0252 55.0121L25.1529 34.0057L61.2811 13.4426Z" stroke="#DFDFDF" stroke-opacity="0.5"/>
<path d="M21.5732 80.7796L21.8398 37.4791L59.2058 59.3603L21.5732 80.7796Z" fill="#212121" fill-opacity="0.2"/>
<path d="M22.334 38.348L58.2063 59.3544L22.0781 79.9175L22.334 38.348Z" stroke="#DFDFDF" stroke-opacity="0.5"/>
<path d="M65.5731 105.78L65.8397 62.4791L103.206 84.3603L65.5731 105.78Z" fill="#212121" fill-opacity="0.2"/>
<path d="M66.3339 63.348L102.206 84.3544L66.078 104.918L66.3339 63.348Z" stroke="#DFDFDF" stroke-opacity="0.5"/>
<path d="M65.5731 55.7796L65.8397 12.4791L103.206 34.3603L65.5731 55.7796Z" fill="#212121" fill-opacity="0.2"/>
<path d="M66.3339 13.348L102.206 34.3544L66.078 54.9175L66.3339 13.348Z" stroke="#DFDFDF" stroke-opacity="0.5"/>
</svg>
