<svg width="119" height="118" viewBox="0 0 119 118" fill="none" xmlns="http://www.w3.org/2000/svg">
<path d="M59 25L80.6506 62.5H37.3494L59 25Z" fill="#212121" fill-opacity="0.2"/>
<path d="M79.7852 62H38.2148L59 25.999L79.7852 62Z" stroke="#DFDFDF" stroke-opacity="0.5"/>
<path d="M84 68L105.651 105.5H62.3494L84 68Z" fill="#212121" fill-opacity="0.2"/>
<path d="M104.785 105H63.2148L84 68.999L104.785 105Z" stroke="#DFDFDF" stroke-opacity="0.5"/>
<path d="M62.5 21.6506L105.801 21.6506L84.1506 59.1506L62.5 21.6506Z" fill="#212121" fill-opacity="0.2"/>
<path d="M104.936 22.1502L84.1504 58.1511L63.3652 22.1501L104.936 22.1502Z" stroke="#DFDFDF" stroke-opacity="0.5"/>
<path d="M37.5 66.6506L80.8013 66.6506L59.1506 104.151L37.5 66.6506Z" fill="#212121" fill-opacity="0.2"/>
<path d="M79.9355 67.1502L59.1504 103.151L38.3652 67.1501L79.9355 67.1502Z" stroke="#DFDFDF" stroke-opacity="0.5"/>
<path d="M12.5 21.6506L55.8013 21.6506L34.1506 59.1506L12.5 21.6506Z" fill="#212121" fill-opacity="0.2"/>
<path d="M54.9355 22.1502L34.1504 58.1511L13.3652 22.1501L54.9355 22.1502Z" stroke="#DFDFDF" stroke-opacity="0.5"/>
</svg>
