<svg width="113" height="144" viewBox="0 0 113 144" fill="none" xmlns="http://www.w3.org/2000/svg">
<path d="M24.1538 108.999L61.7864 87.5802L61.5198 130.881L24.1538 108.999Z" fill="#212121" fill-opacity="0.2"/>
<path d="M61.2811 88.4425L61.0252 130.012L25.1528 109.006L61.2811 88.4425Z" stroke="#DFDFDF" stroke-opacity="0.5"/>
<path d="M65.5731 130.78L65.8397 87.4791L103.206 109.36L65.5731 130.78Z" fill="#212121" fill-opacity="0.2"/>
<path d="M66.3339 88.348L102.206 109.354L66.0779 129.918L66.3339 88.348Z" stroke="#DFDFDF" stroke-opacity="0.5"/>
<path d="M24.1538 58.9995L61.7864 37.5802L61.5198 80.8806L24.1538 58.9995Z" fill="#212121" fill-opacity="0.2"/>
<path d="M61.2811 38.4426L61.0252 80.0121L25.1528 59.0057L61.2811 38.4426Z" stroke="#DFDFDF" stroke-opacity="0.5"/>
<path d="M21.5731 105.78L21.8397 62.4791L59.2057 84.3603L21.5731 105.78Z" fill="#212121" fill-opacity="0.2"/>
<path d="M22.3339 63.348L58.2062 84.3544L22.078 104.918L22.3339 63.348Z" stroke="#DFDFDF" stroke-opacity="0.5"/>
<path d="M21.5731 55.7796L21.8397 12.4791L59.2057 34.3603L21.5731 55.7796Z" fill="#212121" fill-opacity="0.2"/>
<path d="M22.3339 13.348L58.2062 34.3544L22.078 54.9175L22.3339 13.348Z" stroke="#DFDFDF" stroke-opacity="0.5"/>
</svg>
