<svg width="140" height="92" viewBox="0 0 140 92" fill="none" xmlns="http://www.w3.org/2000/svg">
<path d="M25 42L46.6506 79.5H3.34937L25 42Z" fill="#212121" fill-opacity="0.2"/>
<path d="M45.7852 79H4.21484L25 42.999L45.7852 79Z" stroke="#DFDFDF" stroke-opacity="0.5"/>
<path d="M79 42L100.651 79.5H57.3494L79 42Z" fill="#212121" fill-opacity="0.2"/>
<path d="M99.7852 79H58.2148L79 42.999L99.7852 79Z" stroke="#DFDFDF" stroke-opacity="0.5"/>
<path d="M105 0L126.651 37.5H83.3494L105 0Z" fill="#212121" fill-opacity="0.2"/>
<path d="M125.785 37H84.2148L105 0.999023L125.785 37Z" stroke="#DFDFDF" stroke-opacity="0.5"/>
<path d="M30.5 41.6506L73.8013 41.6506L52.1506 79.1506L30.5 41.6506Z" fill="#212121" fill-opacity="0.2"/>
<path d="M72.9355 42.1502L52.1504 78.1511L31.3652 42.1501L72.9355 42.1502Z" stroke="#DFDFDF" stroke-opacity="0.5"/>
<path d="M83.5 41.6506L126.801 41.6506L105.151 79.1506L83.5 41.6506Z" fill="#212121" fill-opacity="0.2"/>
<path d="M125.936 42.1502L105.15 78.1511L84.3652 42.1501L125.936 42.1502Z" stroke="#DFDFDF" stroke-opacity="0.5"/>
</svg>
