<svg width="96" height="153" viewBox="0 0 96 153" fill="none" xmlns="http://www.w3.org/2000/svg">
<path d="M34 64L55.6506 101.5H12.3494L34 64Z" fill="#212121" fill-opacity="0.2"/>
<path d="M54.7852 101H13.2148L34 64.999L54.7852 101Z" stroke="#DFDFDF" stroke-opacity="0.5"/>
<path d="M61 22L82.6506 59.5H39.3494L61 22Z" fill="#212121" fill-opacity="0.2"/>
<path d="M81.7852 59H40.2148L61 22.999L81.7852 59Z" stroke="#DFDFDF" stroke-opacity="0.5"/>
<path d="M12.5 21.6506L55.8013 21.6506L34.1506 59.1506L12.5 21.6506Z" fill="#212121" fill-opacity="0.2"/>
<path d="M54.9355 22.1502L34.1504 58.1511L13.3652 22.1501L54.9355 22.1502Z" stroke="#DFDFDF" stroke-opacity="0.5"/>
<path d="M12.5 105.651L55.8013 105.651L34.1506 143.151L12.5 105.651Z" fill="#212121" fill-opacity="0.2"/>
<path d="M54.9355 106.15L34.1504 142.151L13.3652 106.15L54.9355 106.15Z" stroke="#DFDFDF" stroke-opacity="0.5"/>
<path d="M39.5 63.6506L82.8013 63.6506L61.1506 101.151L39.5 63.6506Z" fill="#212121" fill-opacity="0.2"/>
<path d="M81.9355 64.1502L61.1504 100.151L40.3652 64.1501L81.9355 64.1502Z" stroke="#DFDFDF" stroke-opacity="0.5"/>
</svg>
