<svg width="96" height="134" viewBox="0 0 96 134" fill="none" xmlns="http://www.w3.org/2000/svg">
<path d="M34 84L55.6506 121.5H12.3494L34 84Z" fill="#212121" fill-opacity="0.2"/>
<path d="M54.7852 121H13.2148L34 84.999L54.7852 121Z" stroke="#DFDFDF" stroke-opacity="0.5"/>
<path d="M61 42L82.6506 79.5H39.3494L61 42Z" fill="#212121" fill-opacity="0.2"/>
<path d="M81.7852 79H40.2148L61 42.999L81.7852 79Z" stroke="#DFDFDF" stroke-opacity="0.5"/>
<path d="M34 0L55.6506 37.5H12.3494L34 0Z" fill="#212121" fill-opacity="0.2"/>
<path d="M54.7852 37H13.2148L34 0.999023L54.7852 37Z" stroke="#DFDFDF" stroke-opacity="0.5"/>
<path d="M12.5 41.6506L55.8013 41.6506L34.1506 79.1506L12.5 41.6506Z" fill="#212121" fill-opacity="0.2"/>
<path d="M54.9355 42.1502L34.1504 78.1511L13.3652 42.1501L54.9355 42.1502Z" stroke="#DFDFDF" stroke-opacity="0.5"/>
<path d="M39.5 83.6506L82.8013 83.6506L61.1506 121.151L39.5 83.6506Z" fill="#212121" fill-opacity="0.2"/>
<path d="M81.9355 84.1502L61.1504 120.151L40.3652 84.1501L81.9355 84.1502Z" stroke="#DFDFDF" stroke-opacity="0.5"/>
</svg>
