<svg width="95" height="134" viewBox="0 0 95 134" fill="none" xmlns="http://www.w3.org/2000/svg">
<path d="M60 84L81.6506 121.5H38.3494L60 84Z" fill="#212121" fill-opacity="0.2"/>
<path d="M80.7852 121H39.2148L60 84.999L80.7852 121Z" stroke="#DFDFDF" stroke-opacity="0.5"/>
<path d="M34 42L55.6506 79.5H12.3494L34 42Z" fill="#212121" fill-opacity="0.2"/>
<path d="M54.7852 79H13.2148L34 42.999L54.7852 79Z" stroke="#DFDFDF" stroke-opacity="0.5"/>
<path d="M60 0L81.6506 37.5H38.3494L60 0Z" fill="#212121" fill-opacity="0.2"/>
<path d="M80.7852 37H39.2148L60 0.999023L80.7852 37Z" stroke="#DFDFDF" stroke-opacity="0.5"/>
<path d="M38.5 41.6506L81.8013 41.6506L60.1506 79.1506L38.5 41.6506Z" fill="#212121" fill-opacity="0.2"/>
<path d="M80.9355 42.1502L60.1504 78.1511L39.3652 42.1501L80.9355 42.1502Z" stroke="#DFDFDF" stroke-opacity="0.5"/>
<path d="M12.5 83.6506L55.8013 83.6506L34.1506 121.151L12.5 83.6506Z" fill="#212121" fill-opacity="0.2"/>
<path d="M54.9355 84.1502L34.1504 120.151L13.3652 84.1501L54.9355 84.1502Z" stroke="#DFDFDF" stroke-opacity="0.5"/>
</svg>
